#format: frame checksums
#version: 2
#hash: MD5
#tb 0: 1001/30000
#media_type 0: video
#codec_id 0: rawvideo
#dimensions 0: 34x10
#sar 0: 1/1
#stream#, dts,        pts, duration,     size, hash
0,          0,          0,        1,      510, fd7212b519783cf4831ce4bff91f2312
0,          1,          1,        1,      510, 9768722ee939d80a6716865fdebca33d
0,          2,          2,        1,      510, 328ee0f774eeafde00dcc4b9a8f4e9af
0,          3,          3,        1,      510, f882fa6015fcb042094eadab5fa952cf
0,          4,          4,        1,      510, 4331a3dabeae27d2bf3590eb96ce914a
0,          5,          5,        1,      510, 0e15106bd8e90377f6ed8b464d17159c
0,          6,          6,        1,      510, 8f062653ac2b83f7e541393e838d0e0f
0,          7,          7,        1,      510, eeb98c1728c1a74510f8bfaf10fc0002
0,          8,          8,        1,      510, 30bb058a67d6a5ee3693b21cbca5349a
0,          9,          9,        1,      510, 7ce4b79983b3abc37b141a3bea56e0b7
